# xmcd
#
# Track frame offsets:
#	150
#	17160
#	32826
#	50444
#	69349
#	86081
#	96146
#	118319
#	132567
#	148653
#	166668
#	181163
#	200221
#	213362
#	231283
#	252827
#
# Disc length: 3637 seconds
#
# Revision: 0
# Processed by: cddbd v1.5.2PL0 Copyright (c) Steve Scherf et al.
# Submitted via: audiograbber 1.83.01
#
DISCID=e90e3310
DTITLE=Various Artist - My Country Vol 2 - CD1
DYEAR=2010
DGENRE=Country
TTITLE0=Blake Shelton with Trace Adkins - Hillbilly Bone
TTITLE1=Kenny Chesney - Summertime
TTITLE2=Darius Rucker - Alright
TTITLE3=Faith Hill - Breathe
TTITLE4=Brooks and Dunn - You Can't Take The Honky Tonk Out Of The Girl
TTITLE5=Tracy Byrd - Drinkin' Bone
TTITLE6=Brad Paisley - Alcohol
TTITLE7=Tim McGraw - It's A Business Doing Pleasure With You
TTITLE8=Uncle Kracker - Smile
TTITLE9=Zac Brown Band - Chicken Fried
TTITLE10=Josh Thompson - Beer On The Able
TTITLE11=Randy Travis - Baptism
TTITLE12=Easton Corbin - A Little More Country Than That
TTITLE13=Carrie Underwood - Cowboy Cassanova
TTITLE14=Kellie Pickler - Didn't You Know How Much I Loved You
TTITLE15=John Michael Montgomery - I Swear
EXTD=
EXTT0=
EXTT1=
EXTT2=
EXTT3=
EXTT4=
EXTT5=
EXTT6=
EXTT7=
EXTT8=
EXTT9=
EXTT10=
EXTT11=
EXTT12=
EXTT13=
EXTT14=
EXTT15=
PLAYORDER=
